<svg id="Layer_1" data-name="Layer 1" xmlns="http://www.w3.org/2000/svg" viewBox="0 0 122.88 109.91"><defs><style>.cls-1{fill-rule:evenodd;}</style></defs><title>data-center</title><path class="cls-1" d="M79.26,20.09a4,4,0,1,1,4-4,4,4,0,0,1-4,4Zm19.52-.29H91.5V12.36h7.28V19.8Zm11,21.21H75.85A1.82,1.82,0,0,1,74,39.2V30.87a1.82,1.82,0,0,1,1.81-1.81h33.88a1.81,1.81,0,0,1,1.81,1.81V39.2A1.81,1.81,0,0,1,109.73,41ZM0,96.85H0a2.14,2.14,0,0,0,1.23,1.86l20.94,10.82a2.15,2.15,0,0,0,1,.23h.12l41.06.15a1.94,1.94,0,0,0,.76-.15l55.8.15a2,2,0,0,0,2-2h0V2h0a2,2,0,0,0-2-2H64.63L42.69,11.33a2,2,0,0,0-1.08,1.78h0v9.32H23l-22,11.33A2,2,0,0,0,0,35.54H0V96.85ZM62.71,22.43H45.66v-8l17.05-9v17Zm4-18.38h52.1V105.88l-52.1-.16V4.05ZM4.06,36.87l17-9V104.5l-17-8.91c0-25.75,0-33,0-58.72ZM25.15,26.48H62.29v79.4l-37.14-.16V26.48Zm84.58,72.87H75.85A1.81,1.81,0,0,1,74,97.54V89.21a1.82,1.82,0,0,1,1.81-1.81h33.88a1.82,1.82,0,0,1,1.81,1.81v8.33a1.8,1.8,0,0,1-1.81,1.81ZM78.76,95a1.64,1.64,0,1,1,1.64-1.64A1.64,1.64,0,0,1,78.76,95Zm16,1H92.7V90.7h2.07v5.35Zm6.14,0H98.84V90.7h2.07v5.35Zm6.14,0H105V90.7h2.06v5.35Zm2.68-16.15H75.85A1.81,1.81,0,0,1,74,78.1V69.77A1.82,1.82,0,0,1,75.85,68h33.88a1.82,1.82,0,0,1,1.81,1.81v8.33a1.8,1.8,0,0,1-1.81,1.81Zm-31-4.33a1.64,1.64,0,1,1,1.64-1.64,1.64,1.64,0,0,1-1.64,1.64Zm16,1H92.7V71.26h2.07v5.35Zm6.14,0H98.84V71.26h2.07v5.35Zm6.14,0H105V71.26h2.06v5.35Zm2.68-16.15H75.85A1.82,1.82,0,0,1,74,58.65V50.32a1.82,1.82,0,0,1,1.81-1.81h33.88a1.82,1.82,0,0,1,1.81,1.81v8.33a1.81,1.81,0,0,1-1.81,1.82Zm-31-4.34a1.64,1.64,0,1,1,1.64-1.64,1.63,1.63,0,0,1-1.64,1.64Zm16,1H92.7V51.81h2.07v5.35Zm6.14,0H98.84V51.81h2.07v5.35Zm6.14,0H105V51.81h2.06v5.35Zm-51,39.77H32.65a1.81,1.81,0,0,1-1.8-1.81V88.74a1.81,1.81,0,0,1,1.8-1.81H56.07a1.82,1.82,0,0,1,1.81,1.81v6.39a1.81,1.81,0,0,1-1.81,1.81Zm-20.5-3.29A1.64,1.64,0,1,1,37.21,92a1.63,1.63,0,0,1-1.64,1.64Zm11.68,1H45.18V89.33h2.07v5.35Zm6.14,0H51.32V89.33h2.07v5.35Zm2.68-14.86H32.65A1.81,1.81,0,0,1,30.85,78V71.63a1.81,1.81,0,0,1,1.8-1.81H56.07a1.82,1.82,0,0,1,1.81,1.81V78a1.81,1.81,0,0,1-1.81,1.81Zm-20.5-3.29a1.64,1.64,0,1,1,1.64-1.64,1.63,1.63,0,0,1-1.64,1.64Zm11.68,1H45.18V72.22h2.07v5.35Zm6.14,0H51.32V72.22h2.07v5.35ZM56.07,62.7H32.65a1.81,1.81,0,0,1-1.8-1.81V54.51a1.81,1.81,0,0,1,1.8-1.81H56.07a1.81,1.81,0,0,1,1.81,1.81v6.38a1.81,1.81,0,0,1-1.81,1.81Zm-20.5-3.28a1.64,1.64,0,1,1,1.64-1.64,1.64,1.64,0,0,1-1.64,1.64Zm11.68,1H45.18V55.1h2.07v5.35Zm6.14,0H51.32V55.1h2.07v5.35Zm2.68-14.86H32.65a1.81,1.81,0,0,1-1.8-1.81V37.4a1.81,1.81,0,0,1,1.8-1.81H56.07a1.82,1.82,0,0,1,1.81,1.81v6.38a1.81,1.81,0,0,1-1.81,1.81Zm-20.5-3.28a1.64,1.64,0,1,1,1.64-1.64,1.64,1.64,0,0,1-1.64,1.64Zm11.68,1H45.18V38h2.07v5.35Zm6.14,0H51.32V38h2.07v5.35Zm25.37-6.67A1.64,1.64,0,1,1,80.4,35a1.63,1.63,0,0,1-1.64,1.64Zm16,1H92.7V32.36h2.07v5.35Zm6.14,0H98.84V32.36h2.07v5.35Zm6.14,0H105V32.36h2.06v5.35ZM111,19.8H103.7V12.36H111V19.8Z"/></svg>